<?xml version="1.0" encoding="UTF-8"?>
<svg id="Layer_2" data-name="Layer 2" xmlns="http://www.w3.org/2000/svg" viewBox="0 0 488.91 90.44">
  <defs>
    <style>
      .cls-1 {
        fill: #662d91;
      }

      .cls-2 {
        fill: #6d6e71;
      }

      .cls-3 {
        fill: #00aeef;
      }
    </style>
  </defs>
  <g id="Layer_1-2" data-name="Layer 1">
    <g>
      <path class="cls-2" d="M22.85,69.45L0,47.41l22.85-22,5.29,6.13-16.81,15.79,16.81,15.98-5.29,6.13Z"/>
      <path class="cls-3" d="M52.62,68.55l-.2-5.16c-.72.88-1.48,1.69-2.27,2.42-.79.74-1.66,1.38-2.61,1.92-.95.54-1.98.96-3.1,1.26-1.12.3-2.35.45-3.68.45-1.76,0-3.31-.3-4.64-.89-1.33-.59-2.45-1.42-3.36-2.48s-1.59-2.34-2.05-3.84c-.46-1.5-.69-3.16-.69-4.97s.34-3.58,1.03-5.16c.69-1.58,1.74-2.93,3.15-4.07,1.41-1.14,3.17-2.03,5.29-2.68,2.11-.65,4.59-.97,7.44-.97h4.51v-2.37c0-1.01-.12-1.92-.37-2.73-.25-.81-.65-1.51-1.2-2.08s-1.27-1.01-2.15-1.32c-.88-.31-1.97-.47-3.25-.47-2.03,0-4.04.27-6.02.8-1.98.53-3.89,1.27-5.75,2.23v-7.56c1.65-.75,3.55-1.37,5.71-1.86,2.16-.49,4.4-.74,6.73-.74,2.55,0,4.75.28,6.58.83,1.83.56,3.34,1.39,4.53,2.5,1.19,1.11,2.06,2.5,2.63,4.17.56,1.67.85,3.61.85,5.84v26.92h-7.08ZM51.44,51.14h-5.05c-1.4,0-2.59.16-3.56.47-.97.31-1.76.74-2.37,1.28-.61.54-1.06,1.17-1.34,1.88-.28.71-.42,1.47-.42,2.27,0,1.6.45,2.83,1.36,3.67.9.84,2.14,1.26,3.69,1.26,1.15,0,2.35-.48,3.59-1.44,1.24-.96,2.61-2.33,4.1-4.11v-5.28Z"/>
      <path class="cls-2" d="M67.69,25.42l22.85,22-22.85,22.03-5.25-6.13,16.78-15.83-16.78-15.94,5.25-6.13Z"/>
      <path class="cls-1" d="M172.07,68.55h-10.02l-21.88-30.84v30.84h-7.96V5.68h7.96v29.2l21.43-29.2h9.44l-23.09,29.87,24.11,33Z"/>
      <path class="cls-1" d="M201.7,68.55l-.18-6.49c-2.45,2.6-4.93,4.47-7.45,5.63-2.52,1.15-5.17,1.73-7.94,1.73-2.57,0-4.76-.35-6.58-1.06-1.82-.71-3.32-1.68-4.5-2.91-1.18-1.23-2.04-2.69-2.59-4.35-.55-1.67-.83-3.48-.83-5.44,0-4.84,1.68-8.64,5.03-11.38,3.36-2.74,8.31-4.11,14.88-4.11h9.31v-4.23c0-2.85-.85-5.14-2.55-6.85-1.7-1.72-4.3-2.57-7.79-2.57-2.54,0-5.03.31-7.49.91-2.46.61-5,1.48-7.63,2.6v-7.55c.98-.39,2.08-.76,3.29-1.13,1.21-.37,2.48-.7,3.83-.99,1.34-.29,2.74-.52,4.21-.7,1.46-.18,2.94-.26,4.43-.26,2.71,0,5.16.32,7.34.96,2.18.64,4.02,1.62,5.53,2.93,1.51,1.32,2.66,2.97,3.47,4.96.81,1.99,1.21,4.33,1.21,7.02v33.29h-6.98ZM200.85,46.57h-9.89c-1.94,0-3.61.21-5.01.63-1.4.42-2.55,1.01-3.44,1.78-.9.77-1.56,1.69-1.99,2.77-.43,1.07-.65,2.29-.65,3.63,0,.93.13,1.82.4,2.67.27.85.7,1.6,1.3,2.26.6.66,1.37,1.18,2.33,1.56s2.12.58,3.49.58c1.79,0,3.84-.58,6.15-1.76,2.31-1.17,4.75-3.02,7.31-5.56v-8.56Z"/>
      <path class="cls-1" d="M216.51,20.25h7.11l.22,8.9c2.65-3.43,5.27-5.92,7.85-7.46,2.58-1.54,5.18-2.31,7.81-2.31,4.65,0,8.18,1.62,10.58,4.86,2.4,3.24,3.51,8.05,3.33,14.43h-7.87c.09-4.23-.49-7.3-1.72-9.21-1.24-1.91-3.05-2.86-5.44-2.86-1.04,0-2.1.2-3.15.6-1.06.4-2.15,1.04-3.27,1.92-1.12.88-2.3,2.01-3.56,3.39-1.25,1.38-2.59,3.05-4.03,5v31.03h-7.87V20.25Z"/>
      <path class="cls-1" d="M284.14,68.55l-.18-6.49c-2.45,2.6-4.93,4.47-7.45,5.63-2.52,1.15-5.17,1.73-7.94,1.73-2.57,0-4.76-.35-6.58-1.06-1.82-.71-3.32-1.68-4.5-2.91-1.18-1.23-2.04-2.69-2.59-4.35-.55-1.67-.83-3.48-.83-5.44,0-4.84,1.68-8.64,5.03-11.38,3.36-2.74,8.31-4.11,14.88-4.11h9.31v-4.23c0-2.85-.85-5.14-2.55-6.85-1.7-1.72-4.29-2.57-7.78-2.57-2.54,0-5.03.31-7.49.91-2.46.61-5,1.48-7.63,2.6v-7.55c.98-.39,2.08-.76,3.29-1.13,1.21-.37,2.48-.7,3.83-.99,1.34-.29,2.74-.52,4.21-.7,1.46-.18,2.94-.26,4.43-.26,2.71,0,5.16.32,7.34.96,2.18.64,4.02,1.62,5.53,2.93,1.5,1.32,2.66,2.97,3.47,4.96.81,1.99,1.21,4.33,1.21,7.02v33.29h-6.98ZM283.29,46.57h-9.89c-1.94,0-3.61.21-5.01.63-1.4.42-2.55,1.01-3.44,1.78-.9.77-1.56,1.69-1.99,2.77-.43,1.07-.65,2.29-.65,3.63,0,.93.13,1.82.4,2.67.27.85.7,1.6,1.3,2.26.6.66,1.37,1.18,2.33,1.56s2.12.58,3.49.58c1.79,0,3.84-.58,6.15-1.76,2.31-1.17,4.75-3.02,7.32-5.56v-8.56Z"/>
      <path class="cls-1" d="M298.13,20.25h6.93l.31,7.79c1.31-1.67,2.58-3.05,3.8-4.16s2.42-2,3.6-2.67c1.18-.67,2.38-1.15,3.6-1.42s2.49-.41,3.8-.41c4.62,0,8.12,1.47,10.49,4.4s3.56,7.35,3.56,13.25v31.51h-7.79v-30.84c0-3.78-.66-6.58-1.97-8.4-1.31-1.81-3.27-2.72-5.86-2.72-.96,0-1.89.15-2.8.46-.91.31-1.86.83-2.84,1.59-.98.75-2.05,1.77-3.2,3.05-1.15,1.28-2.44,2.89-3.87,4.81v32.04h-7.79V20.25Z"/>
      <path class="cls-1" d="M368.57,20.25v47.43c0,3.37-.45,6.36-1.34,8.97-.89,2.61-2.18,4.82-3.85,6.61-1.67,1.8-3.72,3.16-6.15,4.09-2.43.93-5.17,1.4-8.21,1.4-2.21,0-4.36-.22-6.46-.65s-4-1.03-5.7-1.8v-7.99c.92.51,1.92.98,2.97,1.4,1.06.42,2.15.77,3.27,1.06,1.12.29,2.24.51,3.38.65,1.13.14,2.24.22,3.31.22,3.4,0,6.07-1.15,8.01-3.46,1.94-2.31,2.91-5.71,2.91-10.2V27.18h-22.01v-6.93h29.89ZM363.87,0c.87,0,1.67.17,2.42.5.75.34,1.39.81,1.95,1.42.55.61.98,1.32,1.3,2.12.31.8.47,1.65.47,2.55s-.16,1.79-.47,2.57c-.31.79-.75,1.48-1.3,2.09-.55.61-1.2,1.08-1.95,1.42-.75.34-1.55.5-2.42.5s-1.67-.17-2.42-.5c-.75-.34-1.39-.81-1.95-1.42-.55-.61-.98-1.31-1.3-2.09-.31-.79-.47-1.64-.47-2.57s.16-1.75.47-2.55c.31-.8.75-1.51,1.3-2.12.55-.61,1.2-1.08,1.95-1.42.75-.34,1.55-.5,2.42-.5Z"/>
      <path class="cls-2" d="M396.34,69.45l-22.85-22.03,22.85-22,5.29,6.13-16.81,15.79,16.81,15.98-5.29,6.13Z"/>
      <path class="cls-2" d="M408.31,76.89h-8.03l23.66-63.15h8.07l-23.69,63.15Z"/>
      <path class="cls-3" d="M450.99,68.55l-.2-5.16c-.72.88-1.48,1.69-2.27,2.42-.79.74-1.66,1.38-2.61,1.92-.95.54-1.98.96-3.1,1.26-1.12.3-2.34.45-3.68.45-1.76,0-3.31-.3-4.64-.89-1.33-.59-2.45-1.42-3.36-2.48-.9-1.06-1.59-2.34-2.05-3.84s-.69-3.16-.69-4.97.34-3.58,1.03-5.16c.69-1.58,1.74-2.93,3.15-4.07,1.41-1.14,3.17-2.03,5.29-2.68,2.11-.65,4.59-.97,7.44-.97h4.51v-2.37c0-1.01-.12-1.92-.37-2.73s-.65-1.51-1.2-2.08-1.27-1.01-2.15-1.32c-.88-.31-1.97-.47-3.25-.47-2.03,0-4.04.27-6.02.8-1.98.53-3.89,1.27-5.75,2.23v-7.56c1.65-.75,3.55-1.37,5.71-1.86,2.16-.49,4.4-.74,6.73-.74,2.55,0,4.75.28,6.58.83,1.83.56,3.34,1.39,4.53,2.5s2.06,2.5,2.63,4.17c.56,1.67.85,3.61.85,5.84v26.92h-7.08ZM449.81,51.14h-5.05c-1.4,0-2.59.16-3.56.47-.97.31-1.76.74-2.37,1.28-.61.54-1.06,1.17-1.34,1.88-.28.71-.42,1.47-.42,2.27,0,1.6.45,2.83,1.36,3.67.9.84,2.14,1.26,3.7,1.26,1.15,0,2.35-.48,3.59-1.44,1.24-.96,2.61-2.33,4.1-4.11v-5.28Z"/>
      <path class="cls-2" d="M466.07,25.42l22.85,22-22.85,22.03-5.25-6.13,16.78-15.83-16.78-15.94,5.25-6.13Z"/>
    </g>
    <g>
      <path class="cls-2" d="M137.55,77.11h-4.97v-2.68h12.88v2.68h-4.97v12.97h-2.95v-12.97Z"/>
      <path class="cls-2" d="M168.38,90.08h-11.72v-15.66h11.72v2.86h-8.79v3.6h8.48v2.75h-8.48v3.53h8.79v2.91Z"/>
      <path class="cls-2" d="M193.71,88.12c-1.57,1.55-3.55,2.33-5.95,2.33-1.4,0-2.65-.23-3.74-.68-1.09-.46-1.96-1.07-2.61-1.83-.65-.77-1.14-1.62-1.47-2.56s-.49-1.94-.49-3,.17-2.05.5-3.02.83-1.85,1.5-2.64,1.54-1.42,2.63-1.89c1.09-.47,2.31-.7,3.67-.7,2.21,0,4.12.8,5.75,2.39l-1.97,1.9c-1-.98-2.26-1.48-3.78-1.48-1.76,0-3.1.54-4.03,1.62-.92,1.08-1.38,2.35-1.36,3.81.01,1.46.47,2.71,1.36,3.75.9,1.04,2.24,1.55,4.03,1.55.7,0,1.41-.14,2.11-.41.71-.28,1.32-.67,1.82-1.17l2.01,2.04Z"/>
      <path class="cls-2" d="M215.61,90.11v-6.33h-7.69v6.33h-2.95v-15.66h2.95v6.6h7.69v-6.6h2.93v15.66h-2.93Z"/>
      <path class="cls-2" d="M256.91,75.57c.98.76,1.48,1.89,1.48,3.4,0,1.4-.68,2.41-2.04,3.02.82.25,1.44.74,1.87,1.46.43.72.64,1.4.64,2.02,0,3.07-1.95,4.61-5.86,4.61h-7.43v-15.66h7.43c1.63,0,2.93.38,3.91,1.14ZM248.48,80.71h4.52c1.64,0,2.46-.56,2.46-1.68,0-.46-.2-.9-.6-1.31-.4-.41-1.02-.62-1.86-.62h-4.52v3.6ZM248.48,87.33h4.52c.46,0,.9-.05,1.31-.15.41-.1.78-.29,1.12-.59.34-.3.5-.68.5-1.14,0-.66-.32-1.18-.95-1.57s-1.29-.58-1.98-.58h-4.52v4.03Z"/>
      <path class="cls-2" d="M273.63,74.43v12.93h8.05v2.73h-11.01v-15.66h2.95Z"/>
      <path class="cls-2" d="M303.27,74.84c1.04.47,1.89,1.1,2.53,1.88.64.78,1.13,1.66,1.46,2.62.34.96.5,1.96.48,3.01-.02,1.04-.19,2.04-.51,2.99-.33.95-.81,1.8-1.44,2.57-.63.77-1.47,1.38-2.52,1.84-1.04.46-2.23.69-3.56.69s-2.52-.22-3.57-.67c-1.05-.45-1.9-1.05-2.54-1.82-.64-.77-1.13-1.62-1.45-2.57-.33-.95-.49-1.95-.49-3.01,0-2.43.78-4.41,2.33-5.95s3.48-2.3,5.79-2.3c1.28.01,2.45.26,3.49.73ZM295.9,86.17c.84,1.04,2.11,1.57,3.81,1.57s2.97-.53,3.81-1.58,1.28-2.31,1.31-3.77c.03-1.46-.39-2.75-1.25-3.87-.87-1.12-2.13-1.69-3.8-1.72-1.62,0-2.91.54-3.86,1.61-.95,1.07-1.4,2.41-1.35,4,.04,1.46.49,2.71,1.33,3.76Z"/>
      <path class="cls-2" d="M330.81,78.25c-.51-.49-1.12-.88-1.85-1.15-.72-.28-1.44-.41-2.14-.41-1.64,0-2.95.55-3.93,1.64-.98,1.1-1.46,2.47-1.46,4.13,0,1.45.45,2.68,1.34,3.7.9,1.02,2.25,1.53,4.05,1.53,1.31,0,2.49-.42,3.54-1.25v-2.77h-4v-2.64h6.71v6.6c-1.64,1.88-3.72,2.82-6.24,2.82-1.42,0-2.67-.22-3.76-.66-1.09-.44-1.95-1.04-2.59-1.8s-1.12-1.61-1.44-2.54c-.32-.93-.48-1.93-.48-2.99,0-1.52.3-2.91.89-4.16.6-1.25,1.53-2.29,2.81-3.1s2.8-1.22,4.57-1.22c2.25,0,4.19.8,5.82,2.39l-1.83,1.88Z"/>
    </g>
  </g>
</svg>